<svg width="24" height="24" viewBox="0 0 24 24" fill="none" xmlns="http://www.w3.org/2000/svg">
<g clip-path="url(#clip0_797_196)">
<path d="M14.3085 9.58957V9.59332C14.2343 9.54607 14.082 9.52282 13.8908 9.52282V14.3393C14.16 14.3393 14.328 14.2771 14.391 14.1713C14.4533 14.0701 14.4848 13.7693 14.4848 13.2886V10.4213C14.4848 10.0928 14.481 9.88207 14.4533 9.79207C14.43 9.69457 14.3865 9.62782 14.3123 9.58882L14.3085 9.58957ZM22.4138 7.28912e-05H1.62075C1.20268 0.0241271 0.807646 0.199507 0.509403 0.493471C0.211161 0.787435 0.030092 1.17989 0 1.59757L0 22.3786C0.0585 23.2538 0.711 23.9213 1.55475 23.9956C1.5705 23.9993 1.58625 23.9993 1.602 23.9993H22.446C22.8707 23.9567 23.2647 23.7583 23.5518 23.4424C23.8389 23.1265 23.9988 22.7154 24.0008 22.2886V1.71007C23.9986 1.27809 23.8344 0.862643 23.5407 0.545872C23.247 0.229101 22.8451 0.0340644 22.4145 -0.000677109L22.4138 7.28912e-05ZM4.79325 15.6248H2.88675V8.26132H4.79325V15.6248ZM11.3318 15.6248H9.67125V10.6523L8.99925 15.6211H7.812L7.113 10.7618L7.1055 15.6211H5.44125V8.26132H7.90575C7.992 8.78107 8.06625 9.30832 8.136 9.83557L8.40525 11.7031L8.85075 8.26132H11.331L11.3318 15.6248ZM16.3088 13.4453C16.3088 14.0978 16.266 14.5388 16.203 14.7653C16.155 14.9695 16.0411 15.1521 15.879 15.2851C15.7154 15.4217 15.5189 15.5132 15.309 15.5506C15.0863 15.5933 14.739 15.6248 14.2898 15.6248L14.286 15.6211H11.9813V8.26132H13.407C14.3213 8.26132 14.856 8.30857 15.1763 8.38657C15.5003 8.47657 15.7508 8.61307 15.9225 8.80882C16.0868 8.98882 16.1963 9.21082 16.2353 9.45307C16.2863 9.68782 16.3095 10.1566 16.3095 10.8556L16.3088 13.4453ZM21.2543 13.9178C21.2543 14.3671 21.207 14.6836 21.1643 14.9101C21.102 15.1328 20.9693 15.3121 20.7578 15.4763C20.5313 15.6443 20.277 15.7186 19.9763 15.7186C19.7573 15.7186 19.476 15.6563 19.2968 15.5821C19.097 15.4759 18.9214 15.3295 18.7808 15.1523L18.6675 15.6248H16.9485V8.26132L16.929 8.25757H18.7298V10.6561C18.8783 10.4806 19.0463 10.3478 19.2375 10.2578C19.4584 10.1736 19.6926 10.1299 19.929 10.1288C20.1555 10.1288 20.3783 10.1641 20.589 10.2458C20.7608 10.3163 20.9093 10.4296 21.0263 10.5743C21.1163 10.6996 21.1748 10.8436 21.2063 10.9966C21.2333 11.1331 21.249 11.4263 21.249 11.8636V13.9186L21.2543 13.9178ZM19.0785 11.2036C18.9615 11.2036 18.8873 11.2463 18.8558 11.3243C18.8243 11.4061 18.7973 11.6131 18.7973 11.9491V13.8946C18.7973 14.2186 18.8243 14.4301 18.8558 14.5193C18.8759 14.5616 18.9083 14.5968 18.9486 14.6205C18.989 14.6441 19.0356 14.6551 19.0823 14.6521C19.1993 14.6521 19.3515 14.6048 19.383 14.5111C19.41 14.4136 19.4258 14.1908 19.4258 13.8391L19.4573 13.8353V11.9446C19.4573 11.6438 19.4415 11.4368 19.3988 11.3431C19.3515 11.2418 19.2038 11.2021 19.0823 11.2021L19.0785 11.2036Z" fill="#FFD600"/>
</g>
<defs>
<clipPath id="clip0_797_196">
<rect width="24" height="24" fill="white"/>
</clipPath>
</defs>
</svg>
