<svg width="22" height="20" viewBox="0 0 22 20" fill="none" xmlns="http://www.w3.org/2000/svg">
<path d="M17.864 3.32878C21.3787 6.8435 21.3787 12.542 17.864 16.0567M15.2126 5.98052C17.2629 8.03077 17.2629 11.3549 15.2126 13.4051M5.5 5.9428L10.2197 1.22313C10.6921 0.750653 11.5 1.08528 11.5 1.75346V17.6321C11.5 18.3003 10.6921 18.6349 10.2197 18.1625L5.5 13.4428H3.25905C2.37971 13.4428 1.5559 12.9363 1.32237 12.0886C1.11224 11.3258 1 10.5224 1 9.6928C1 8.86321 1.11224 8.05983 1.32237 7.29704C1.5559 6.44927 2.37971 5.9428 3.25905 5.9428H5.5Z" stroke="white" stroke-width="2" stroke-linecap="round" stroke-linejoin="round"/>
</svg>
